<?xml version="1.0" standalone="no"?>
<!DOCTYPE svg PUBLIC "-//W3C//DTD SVG 20010904//EN"
 "http://www.w3.org/TR/2001/REC-SVG-20010904/DTD/svg10.dtd">
<svg version="1.0" xmlns="http://www.w3.org/2000/svg"
 width="512.000000pt" height="512.000000pt" viewBox="0 0 512.000000 512.000000"
 preserveAspectRatio="xMidYMid meet">
<metadata>
Created by potrace 1.14, written by Peter Selinger 2001-2017
</metadata>
<g transform="translate(0.000000,512.000000) scale(0.100000,-0.100000)"
fill="#000000" stroke="none">
<path d="M2360 5099 c-284 -74 -530 -313 -719 -699 l-66 -135 -130 9 c-301 22
-592 -41 -782 -167 -172 -115 -287 -282 -328 -479 -19 -90 -19 -275 0 -375 34
-176 128 -393 254 -585 l70 -108 -70 -107 c-134 -207 -220 -406 -255 -591 -20
-109 -15 -327 10 -417 92 -328 365 -537 773 -590 116 -15 275 -18 393 -6 l65
6 66 -135 c191 -388 437 -627 723 -700 109 -28 283 -28 392 0 286 73 532 312
723 700 l66 135 65 -6 c187 -19 425 -1 580 42 101 28 241 96 319 154 117 89
225 251 267 400 25 90 30 308 10 417 -35 185 -121 384 -255 591 l-70 107 70
108 c185 284 269 527 269 777 0 284 -105 493 -328 653 -196 140 -526 206 -862
173 l-65 -6 -66 135 c-191 388 -437 627 -723 700 -108 27 -290 27 -396 -1z
m281 -658 c24 -15 58 -44 75 -62 40 -43 118 -158 149 -219 l24 -48 -47 -17
c-26 -10 -100 -38 -164 -63 l-118 -45 -117 45 c-65 25 -139 53 -165 63 l-47
17 24 48 c31 61 109 176 149 219 48 52 115 91 156 91 23 0 53 -11 81 -29z
m-1261 -819 c0 -4 -9 -52 -19 -107 -10 -55 -24 -141 -31 -191 l-12 -91 -81
-69 c-44 -38 -93 -79 -108 -92 l-28 -22 -35 63 c-94 167 -136 304 -116 377 16
61 87 102 215 125 78 15 215 19 215 7z m2625 -17 c89 -23 147 -63 163 -109 23
-72 -17 -210 -112 -380 l-37 -66 -28 22 c-15 13 -64 54 -108 92 l-81 69 -12
91 c-7 50 -21 136 -31 191 -10 55 -19 104 -19 109 0 13 195 -1 265 -19z
m-1275 -271 c44 -9 116 -36 175 -64 172 -84 281 -193 365 -365 59 -122 80
-212 80 -345 0 -133 -21 -223 -80 -345 -84 -172 -193 -281 -365 -365 -121 -58
-218 -81 -345 -81 -127 0 -224 23 -345 81 -172 84 -281 193 -365 365 -59 122
-80 212 -80 347 0 217 78 406 230 558 132 132 299 211 485 229 86 8 148 4 245
-15z m-1494 -1377 l79 -68 32 -192 c17 -106 32 -196 32 -200 1 -14 -186 4
-269 24 -148 38 -183 87 -156 217 15 72 53 165 112 269 l35 63 28 -22 c15 -13
63 -54 107 -91z m2860 -32 c95 -194 104 -308 26 -360 -50 -33 -165 -61 -286
-70 l-99 -7 6 28 c3 16 18 106 33 199 l27 170 41 35 c22 19 70 61 106 93 77
68 66 75 146 -88z m-1429 -833 c54 -21 126 -49 161 -62 l62 -23 -36 -66 c-98
-178 -212 -291 -295 -291 -40 0 -107 39 -155 91 -40 43 -118 157 -149 219
l-24 46 157 61 c86 34 163 62 169 62 7 1 57 -16 110 -37z"/>
<path d="M2432 2859 c-204 -79 -260 -370 -102 -529 161 -160 452 -102 530 107
30 79 26 196 -10 268 -33 68 -99 129 -166 154 -73 28 -180 27 -252 0z"/>
</g>
</svg>
